<svg xmlns="http://www.w3.org/2000/svg" width="456.8" height="101.24" viewBox="0 0 456.8 101.24"><title>ammoAsset 2</title><g id="Layer_2" data-name="Layer 2"><g id="Layer_6" data-name="Layer 6"><path d="M50.62,101.24a50.62,50.62,0,1,1,50.62-50.62A50.68,50.68,0,0,1,50.62,101.24Zm0-97.58a47,47,0,1,0,46.95,47A47,47,0,0,0,50.62,3.66Z"/><path d="M50.62,73.19A22.57,22.57,0,1,1,73.19,50.62,22.6,22.6,0,0,1,50.62,73.19Zm0-41.48a18.91,18.91,0,1,0,18.9,18.91A18.93,18.93,0,0,0,50.62,31.71Z"/><rect x="22.87" y="48.79" width="7.01" height="3.66"/><rect x="71.35" y="48.79" width="7.01" height="3.66"/><path d="M12.38,52.11l-.74,2.26H10l2.71-7.5h1.88l2.65,7.5H15.65l-.74-2.26Zm.39-1.19h1.76l-.87-2.77Z"/><path d="M88.49,48v6.33H87V48H84.45V46.87H91V48Z"/><rect x="49.39" y="15.44" width="2.46" height="2.46"/><rect x="49.39" y="83.18" width="2.46" height="2.46"/><path d="M165.38,63.48c0,3.66.81,4.47,1.8,4.82v1.22H158.4a13.62,13.62,0,0,1-.76-3.66,12.57,12.57,0,0,1-10,4.48c-4.65,0-9.42-2.62-9.42-9,0-6,3.84-9.12,9-9.88l7.32-1.11c1.28-.17,2.85-.69,2.85-2.44,0-3.43-3.25-3.6-5.35-3.6-4.07,0-4.77,2.5-5,4.3h-7.85c.93-9.48,7.5-10.81,13.84-10.81,4.36,0,12.33,1.33,12.33,8.95Zm-8-9c-.81.64-2.15,1.17-5.52,1.69-3,.52-5.53,1.28-5.53,4.65a3.55,3.55,0,0,0,3.78,3.72c3.61,0,7.27-2.32,7.27-6.1Z"/><path d="M216.9,69.52h-8.14V50.74c0-4.59-2-6.1-4.42-6.1-4.07,0-5.52,2.67-5.52,6.33V69.52h-8.14V50.92c0-2.62,0-6.28-4.89-6.28-3.83,0-5.06,2.67-5.06,6V69.52h-8.14V38.59h7.79v4.53h.12a9.21,9.21,0,0,1,8.78-5.34c4.48,0,6.51,1.62,8.61,4.94,1.05-1.51,3.31-4.94,8.25-4.94,6.05,0,10.76,3.54,10.76,10.34Z"/><path d="M268.6,69.52h-8.14V50.74c0-4.59-2-6.1-4.42-6.1-4.07,0-5.52,2.67-5.52,6.33V69.52h-8.14V50.92c0-2.62,0-6.28-4.89-6.28-3.83,0-5.05,2.67-5.05,6V69.52h-8.15V38.59h7.8v4.53h.11A9.21,9.21,0,0,1,241,37.78c4.48,0,6.51,1.62,8.61,4.94,1-1.51,3.31-4.94,8.25-4.94,6.05,0,10.76,3.54,10.76,10.34Z"/><path d="M290.07,70.34c-8.32,0-15.82-5.12-15.82-16.28s7.5-16.28,15.82-16.28,15.81,5.11,15.81,16.28S298.38,70.34,290.07,70.34Zm0-25.7c-6.28,0-7.45,5.46-7.45,9.42s1.17,9.42,7.45,9.42,7.44-5.47,7.44-9.42S296.35,44.64,290.07,44.64Z"/><path d="M320.72,38.59h5V44.4h-5V61.21c0,1.8,0,2.5,3.37,2.5.52,0,1.1-.06,1.68-.12v6.16c-1.28.06-2.55.12-3.83.12h-1.05c-7,0-8.31-2.67-8.31-6.69V44.4h-4.19V38.59h4.19V30.22h8.14Z"/><path d="M343.8,70.34c-8.31,0-15.81-5.12-15.81-16.28s7.5-16.28,15.81-16.28,15.82,5.11,15.82,16.28S352.12,70.34,343.8,70.34Zm0-25.7c-6.28,0-7.44,5.46-7.44,9.42s1.16,9.42,7.44,9.42,7.45-5.47,7.45-9.42S350.08,44.64,343.8,44.64Z"/><path d="M373.7,69.52h-8.14V27.77h8.14V50.33l10.23-11.74h10L383,50.57l11.22,18.95h-9.77l-7.38-13.25-3.37,3.48Z"/><path d="M423.07,60.45c-2.15,7.44-8.32,9.89-13.61,9.89-8.72,0-15.41-4.19-15.41-16.92,0-3.73,1.28-15.64,14.83-15.64,6.11,0,14.54,2.9,14.54,17v1.46H402.19c.24,2.32.7,7.55,7.27,7.55,2.27,0,4.6-1.16,5.24-3.37ZM415,51c-.46-5-3.66-6.51-6.28-6.51-3.83,0-5.87,2.44-6.33,6.51Z"/><path d="M456.8,69.52h-8.14V50.74c0-2.27-.12-6.1-5.29-6.1-3.61,0-6.4,2.44-6.4,7.15V69.52h-8.14V38.59h7.79v4.53h.12a10,10,0,0,1,9.3-5.34c6,0,10.76,3.54,10.76,10.34Z"/></g></g></svg>