<svg xmlns="http://www.w3.org/2000/svg" width="89.01" height="80.97" viewBox="0 0 89.01 80.97"><title>blk_logosoloAsset 2</title><g id="Layer_2" data-name="Layer 2"><g id="Logo"><path d="M61.21,76.47a7.71,7.71,0,0,0,6.65-3.83h4.89l-.5,1.13a12.34,12.34,0,0,1-1.91,3.07A12.2,12.2,0,0,1,61.21,81H58.35Z" fill="#231f20"/><path d="M15.13,63.21,11.24,61,30.45,27.68A12.2,12.2,0,0,1,41,21.6H79l2,4.49H41a7.69,7.69,0,0,0-6.64,3.84Z" fill="#231f20"/><path d="M80.51,59.73H75.32L84.47,44a.26.26,0,0,0,0-.28.26.26,0,0,0-.24-.14H52.89a7.68,7.68,0,0,0-6.64,3.84l-7.1,12.29H34l8.39-14.54a12.22,12.22,0,0,1,10.54-6.08H84.23a4.76,4.76,0,0,1,4.12,7.17Z" fill="#231f20"/><path d="M72.25,7.2a12,12,0,0,0-1.91-3.07A12.2,12.2,0,0,0,61.21,0H28.51A12.2,12.2,0,0,0,18,6.08L1.63,34.4a12.19,12.19,0,0,0,0,12.17L18,74.89A12.2,12.2,0,0,0,28.51,81H44.64a6.64,6.64,0,0,0,5.74-3.31L70.81,42.48l-3.89-2.25L46.49,75.41a2.13,2.13,0,0,1-1.85,1.06H28.51a7.67,7.67,0,0,1-6.64-3.83L5.52,44.32a7.72,7.72,0,0,1,0-7.67L21.87,8.33a7.68,7.68,0,0,1,6.64-3.84h32.7a7.69,7.69,0,0,1,6.65,3.84h4.89Z" fill="#231f20"/></g></g></svg>