<svg xmlns="http://www.w3.org/2000/svg" width="394.66" height="60.02" viewBox="0 0 394.66 60.02"><title>blk_logosoloAsset 3</title><g id="Layer_2" data-name="Layer 2"><g id="Logo"><path d="M45.38,60V56.69a5.7,5.7,0,0,0,4.92-2.84l2.89,1.66A9,9,0,0,1,45.38,60Z" fill="#31ece6"/><path d="M11.21,46.86,8.33,45.19,22.57,20.52A9,9,0,0,1,30.38,16H58.87v3.33H30.38a5.71,5.71,0,0,0-4.93,2.85Z" fill="#31ece6"/><path d="M58.71,46l-2.88-1.68,6.78-11.64a.17.17,0,0,0,0-.2.19.19,0,0,0-.18-.11H39.21a5.7,5.7,0,0,0-4.93,2.85L28.06,45.94l-2.89-1.66L31.39,33.5A9.06,9.06,0,0,1,39.21,29H62.44a3.54,3.54,0,0,1,3,5.32Z" fill="#31ece6"/><path d="M33.09,60h-12a9,9,0,0,1-7.8-4.51L1.2,34.52a9.08,9.08,0,0,1,0-9l12.13-21A9,9,0,0,1,21.13,0H45.38a9.05,9.05,0,0,1,7.81,4.51L50.3,6.17a5.7,5.7,0,0,0-4.92-2.84H21.13a5.7,5.7,0,0,0-4.92,2.84l-12.12,21a5.72,5.72,0,0,0,0,5.69l12.12,21a5.7,5.7,0,0,0,4.92,2.84h12a1.58,1.58,0,0,0,1.37-.79L49.61,29.82l2.88,1.67L37.34,57.57A4.94,4.94,0,0,1,33.09,60Z" fill="#31ece6"/><path d="M123.35,28.92v4.41h-16.5V48.07h-5V13.62h25.21V18H106.85V28.92Z" fill="#fff"/><path d="M146.12,24.2v4.41h-.21a6.5,6.5,0,0,0-3.78-1.14c-4.67,0-6.9,3.22-6.9,9.55v11h-4.41V23.79h3.73l.1,3.89h.11c1.45-2.91,4-4.41,7.68-4.41A7,7,0,0,1,146.12,24.2Z" fill="#fff"/><path d="M152.5,37.38c.62,4.51,4.25,7.26,9.75,7.26a12.7,12.7,0,0,0,9-3.32h.21v4.46a14.85,14.85,0,0,1-9.29,2.8c-8.56,0-14.11-5-14.11-12.65,0-7.42,5.24-12.66,12.66-12.66S173,27.88,173,34.94v2.44Zm0-3.68h16.39c-.62-4-3.73-6.49-8.14-6.49A8.13,8.13,0,0,0,152.5,33.7Z" fill="#fff"/><path d="M183.32,16.16a2.91,2.91,0,0,1-5.81,0,2.91,2.91,0,1,1,5.81,0Zm-5.09,7.63h4.41V48.07h-4.41Z" fill="#fff"/><path d="M213.41,46.15c0,7.67-4.88,12.29-13.13,12.29-4.25,0-7.89-1.19-10.12-3.21V50.61h.21c2,2.44,5.45,3.89,9.44,3.89,5.87,0,9.19-3.06,9.19-8.61v-1.2h-.11C207,47,204,48.38,200,48.38c-7.06,0-12.14-5.19-12.14-12.56S193,23.27,200,23.27c4.25,0,7.57,1.66,9.39,4.41h.1l.16-3.89h3.74Zm-4.26-10.33c0-5.13-3.47-8.61-8.4-8.61s-8.41,3.48-8.41,8.61,3.43,8.61,8.41,8.61S209.15,41,209.15,35.82Z" fill="#fff"/><path d="M242.87,34V48.07h-4.41V34.47c0-4.56-2.49-7.26-6.59-7.26-4.51,0-7.21,3.11-7.21,8.25V48.07h-4.41V11.75h4.41V26.8h.11c1.71-2.29,4.56-3.53,8.14-3.53C239.08,23.27,242.87,27.31,242.87,34Z" fill="#fff"/><path d="M263.05,47.7a9.5,9.5,0,0,1-4.41.88c-5.08,0-7.94-3-7.94-8.45V27.63h-4.46V23.79h4.57l.67-6.59h3.64v6.59H263v3.84h-7.83V40c0,2.91,1.55,4.62,4.15,4.62a4.7,4.7,0,0,0,3.58-1.4h.2Z" fill="#fff"/><path d="M295.58,48.07H287.9V20.47H277.63V13.62H305.8v6.85H295.58Z" fill="#31ece6"/><path d="M324.63,24.1v6.64h-.26a6.56,6.56,0,0,0-3.84-1.14c-4.15,0-6,2.54-6,8V48.07h-6.79V23.68h5.65l.31,3.79h.11c1.35-2.85,3.73-4.31,7.26-4.31A6,6,0,0,1,324.63,24.1Z" fill="#31ece6"/><path d="M345.17,48.07l-.26-3.48h-.1c-1.45,2.54-4.05,4-7.57,4-6,0-9.5-3.89-9.5-10.48V23.68h6.8V37.33c0,3.37,1.66,5.24,4.51,5.24,3.11,0,5-2.13,5-5.92v-13h6.8V48.07Z" fill="#31ece6"/><path d="M373.6,24.72v6.49h-.26c-1.61-1.61-4.1-2.44-7.26-2.44-2.65,0-3.94.77-3.94,2.28,0,1.09.83,1.56,4,1.76,6.49.42,9,2.7,9,7.84,0,5-3.74,7.93-10,7.93-4.05,0-7.16-.72-9.24-2.17V39.87h.31c1.92,2.07,4.83,3.11,8.62,3.11,2.64,0,3.94-.78,3.94-2.33,0-1.3-1-1.82-4.46-2.13-6.18-.57-8.61-2.44-8.61-7.26s4-8.1,10.16-8.1A17.51,17.51,0,0,1,373.6,24.72Z" fill="#31ece6"/><path d="M394.66,47.75a10.78,10.78,0,0,1-4.77.83c-5.91,0-9.08-3.21-9.08-9.39V29.44h-4V23.68H381l.88-6.85h5.71v6.85h7v5.76h-7v9.5c0,2.33,1.24,3.63,3.37,3.63a4.4,4.4,0,0,0,3.43-1.4h.25Z" fill="#31ece6"/></g></g></svg>