<svg xmlns="http://www.w3.org/2000/svg" width="299.99" height="124.23" viewBox="0 0 299.99 124.23"><title>ftn_Asset 2</title><g id="Layer_2" data-name="Layer 2"><g id="Logo"><path d="M44.81,31.37v8.05H14.68V66.34H5.58V3.41H51.64v8.06h-37v19.9Z" fill="#fff"/><path d="M86.41,22.74V30.8H86a11.91,11.91,0,0,0-6.92-2.09c-8.52,0-12.6,5.88-12.6,17.44V66.34H58.46V22h6.82l.19,7.1h.19c2.65-5.3,7.3-8,14-8A12.78,12.78,0,0,1,86.41,22.74Z" fill="#fff"/><path d="M98.06,46.81c1.14,8.25,7.77,13.27,17.82,13.27,6.54,0,12.23-2.08,16.39-6.06h.38v8.15c-4,3.22-10,5.11-17,5.11-15.64,0-25.78-9.19-25.78-23.12C89.91,30.61,99.49,21,113,21s22.46,8.43,22.46,21.32v4.45Zm0-6.72H128c-1.14-7.21-6.82-11.85-14.88-11.85C105.55,28.24,99.58,33,98.06,40.09Z" fill="#fff"/><path d="M154.35,8.05a5.31,5.31,0,0,1-10.62,0,5.31,5.31,0,0,1,10.62,0ZM145.06,22h8.06V66.34h-8.06Z" fill="#fff"/><path d="M209.31,62.83c0,14-8.91,22.46-24,22.46-7.77,0-14.4-2.18-18.48-5.88V71h.38c3.6,4.45,10,7.11,17.25,7.11,10.71,0,16.77-5.59,16.77-15.73V60.18h-.19c-3.5,4.26-9,6.73-16.2,6.73-12.89,0-22.18-9.48-22.18-22.94S172,21,184.86,21c7.77,0,13.84,3,17.15,8.05h.19l.29-7.1h6.82ZM201.54,44c0-9.38-6.35-15.73-15.35-15.73S170.83,34.59,170.83,44s6.26,15.73,15.36,15.73S201.54,53.35,201.54,44Z" fill="#fff"/><path d="M263.13,40.56V66.34h-8.06V41.51c0-8.34-4.54-13.27-12-13.27-8.25,0-13.17,5.69-13.17,15.07v23h-8.06V0h8.06V27.48h.19c3.12-4.17,8.34-6.44,14.87-6.44C256.21,21,263.13,28.43,263.13,40.56Z" fill="#fff"/><path d="M300,65.67a17.27,17.27,0,0,1-8.06,1.61c-9.28,0-14.5-5.49-14.5-15.44V29h-8.15V22h8.34l1.24-12h6.63V22H299.8v7H285.49V51.65c0,5.3,2.84,8.43,7.58,8.43a8.56,8.56,0,0,0,6.54-2.56H300Z" fill="#fff"/><path d="M24.09,123.54H13.78v-37H0V77.31H37.8V86.5H24.09Z" fill="#31ece6"/><path d="M63.08,91.37v8.91h-.35a8.86,8.86,0,0,0-5.15-1.53c-5.57,0-8.07,3.41-8.07,10.72v14.07H40.39V90.82H48l.42,5.08h.14c1.81-3.83,5-5.78,9.75-5.78A8.15,8.15,0,0,1,63.08,91.37Z" fill="#31ece6"/><path d="M90.65,123.54l-.34-4.67h-.14c-2,3.41-5.43,5.36-10.17,5.36-8,0-12.74-5.22-12.74-14.06V90.82h9.12v18.31c0,4.52,2.23,7,6.06,7,4.18,0,6.68-2.86,6.68-7.94V90.82h9.12v32.72Z" fill="#31ece6"/><path d="M128.81,92.21v8.7h-.35c-2.15-2.16-5.5-3.27-9.74-3.27-3.55,0-5.29,1-5.29,3.06,0,1.46,1.11,2.09,5.43,2.37,8.7.56,12.11,3.62,12.11,10.51,0,6.68-5,10.65-13.43,10.65-5.44,0-9.61-1-12.4-2.92v-8.77h.42c2.58,2.78,6.47,4.17,11.56,4.17,3.55,0,5.29-1,5.29-3.13,0-1.74-1.39-2.44-6-2.85-8.28-.77-11.56-3.28-11.56-9.75s5.36-10.86,13.65-10.86A23.57,23.57,0,0,1,128.81,92.21Z" fill="#31ece6"/><path d="M157.08,123.12a14.77,14.77,0,0,1-6.4,1.11c-7.94,0-12.18-4.31-12.18-12.6V98.54h-5.43V90.82h5.71L140,81.63h7.66v9.19H157v7.72h-9.39v12.74c0,3.14,1.67,4.88,4.52,4.88a5.92,5.92,0,0,0,4.6-1.88h.34Z" fill="#31ece6"/></g></g></svg>