<svg xmlns="http://www.w3.org/2000/svg" width="292.8" height="46.69" viewBox="0 0 292.8 46.69"><title>ftn_Asset 4</title><g id="Layer_2" data-name="Layer 2"><g id="Logo"><path d="M21.48,17.17v4.41H5V36.32H0V1.87H25.21V6.28H5V17.17Z" fill="#fff"/><path d="M44.25,12.45v4.41h-.2a6.54,6.54,0,0,0-3.79-1.14c-4.67,0-6.9,3.22-6.9,9.55V36.32H29V12h3.73l.11,3.89h.1c1.45-2.91,4-4.41,7.68-4.41A6.94,6.94,0,0,1,44.25,12.45Z" fill="#fff"/><path d="M50.63,25.63c.63,4.51,4.26,7.26,9.76,7.26a12.67,12.67,0,0,0,9-3.32h.21V34a14.85,14.85,0,0,1-9.29,2.8c-8.56,0-14.11-5-14.11-12.65,0-7.42,5.24-12.66,12.66-12.66s12.3,4.61,12.3,11.67v2.44Zm0-3.68H67c-.62-3.95-3.74-6.49-8.15-6.49A8.13,8.13,0,0,0,50.63,22Z" fill="#fff"/><path d="M81.45,4.41a2.91,2.91,0,0,1-5.81,0,2.91,2.91,0,1,1,5.81,0ZM76.36,12h4.41V36.32H76.36Z" fill="#fff"/><path d="M111.54,34.4c0,7.67-4.88,12.29-13.13,12.29-4.25,0-7.88-1.19-10.11-3.21V38.86h.2c2,2.44,5.45,3.89,9.45,3.89,5.86,0,9.18-3.06,9.18-8.61v-1.2H107c-1.92,2.34-4.92,3.69-8.87,3.69C91.1,36.63,86,31.44,86,24.07S91.1,11.52,98.15,11.52c4.26,0,7.58,1.66,9.39,4.41h.11L107.8,12h3.74Zm-4.26-10.33c0-5.13-3.47-8.61-8.4-8.61s-8.41,3.48-8.41,8.61,3.43,8.61,8.41,8.61S107.28,29.21,107.28,24.07Z" fill="#fff"/><path d="M141,22.2V36.32h-4.41V22.72c0-4.56-2.49-7.26-6.58-7.26-4.52,0-7.22,3.11-7.22,8.25V36.32h-4.41V0h4.41V15.05h.11c1.71-2.29,4.56-3.53,8.14-3.53C137.22,11.52,141,15.56,141,22.2Z" fill="#fff"/><path d="M161.19,36a9.53,9.53,0,0,1-4.41.88c-5.09,0-7.94-3-7.94-8.45V15.88h-4.46V12h4.56l.68-6.59h3.63V12h7.83v3.84h-7.83V28.27c0,2.91,1.55,4.62,4.15,4.62a4.68,4.68,0,0,0,3.58-1.4h.21Z" fill="#fff"/><path d="M193.71,36.32H186V8.72H175.76V1.87h28.17V8.72H193.71Z" fill="#31ece6"/><path d="M222.76,12.35V19h-.26a6.54,6.54,0,0,0-3.84-1.14c-4.15,0-6,2.54-6,8V36.32h-6.8V11.93h5.66l.31,3.79h.1c1.35-2.85,3.74-4.31,7.26-4.31A6,6,0,0,1,222.76,12.35Z" fill="#31ece6"/><path d="M243.31,36.32l-.26-3.48h-.11c-1.45,2.54-4,4-7.57,4-6,0-9.5-3.89-9.5-10.48V11.93h6.8V25.58c0,3.37,1.66,5.24,4.51,5.24,3.12,0,5-2.13,5-5.92v-13H249V36.32Z" fill="#31ece6"/><path d="M271.73,13v6.49h-.25c-1.61-1.61-4.1-2.44-7.27-2.44-2.64,0-3.94.77-3.94,2.28,0,1.09.83,1.56,4.05,1.76,6.48.42,9,2.7,9,7.84,0,5-3.73,7.93-10,7.93-4.05,0-7.16-.72-9.23-2.17V28.12h.31c1.92,2.07,4.82,3.11,8.61,3.11,2.64,0,3.94-.78,3.94-2.33,0-1.3-1-1.82-4.46-2.13-6.17-.57-8.61-2.44-8.61-7.26s4-8.1,10.17-8.1A17.46,17.46,0,0,1,271.73,13Z" fill="#31ece6"/><path d="M292.8,36a10.85,10.85,0,0,1-4.78.83c-5.91,0-9.07-3.21-9.07-9.39V17.69H274.9V11.93h4.25L280,5.08h5.7v6.85h7v5.76h-7v9.5c0,2.33,1.25,3.63,3.37,3.63a4.4,4.4,0,0,0,3.43-1.4h.26Z" fill="#31ece6"/></g></g></svg>