<svg xmlns="http://www.w3.org/2000/svg" width="346.78" height="315.48" viewBox="0 0 346.78 315.48"><title>fts_Asset 2</title><g id="Layer_2" data-name="Layer 2"><g id="Logo"><path d="M238.49,315.48V298a30,30,0,0,0,25.89-15l15.16,8.76A47.53,47.53,0,0,1,238.49,315.48Z" fill="#f6f6f6"/><path d="M58.92,246.27l-15.16-8.75,74.86-129.67a47.53,47.53,0,0,1,41-23.7H309.39v17.51H159.67a30,30,0,0,0-25.89,15Z" fill="#f6f6f6"/><path d="M308.57,241.5l-15.13-8.81,35.66-61.17a1,1,0,0,0,0-1.09,1,1,0,0,0-.94-.55H206.06a30,30,0,0,0-25.89,15l-32.7,56.64-15.17-8.75L165,176.07a47.54,47.54,0,0,1,41.05-23.69h122.1a18.59,18.59,0,0,1,16.06,28Z" fill="#f6f6f6"/><path d="M173.9,315.48H111.08a47.5,47.5,0,0,1-41-23.7L6.33,181.44a47.53,47.53,0,0,1,0-47.4L70,23.7a47.5,47.5,0,0,1,41-23.7H238.49a47.53,47.53,0,0,1,41.05,23.7l-15.16,8.75a30,30,0,0,0-25.89-14.94H111.08A30,30,0,0,0,85.2,32.45L21.49,142.79a30,30,0,0,0,0,29.89L85.2,283a30,30,0,0,0,25.88,15H173.9a8.37,8.37,0,0,0,7.22-4.16l79.6-137.08,15.14,8.8L196.26,302.6A26,26,0,0,1,173.9,315.48Z" fill="#f6f6f6"/></g></g></svg>